<svg width="552" height="118" viewBox="0 0 552 118" fill="none" xmlns="http://www.w3.org/2000/svg">
<g clip-path="url(#clip0_0_1)">
<path d="M351.5 23L392.636 91.25H310.364L351.5 23Z" fill="#FFC03B"/>
<path d="M358.28 87.66H383.69L374.69 72.11C371.94 73.44 370.29 75.8 368.79 77.8L358.59 71.88L354 54.56C353.822 53.9976 353.527 53.4794 353.134 53.0398C352.741 52.6002 352.259 52.2491 351.72 52.01C351.376 51.8431 351.002 51.7478 350.62 51.73H342.7C342.153 51.739 341.619 51.8975 341.155 52.1883C340.691 52.4791 340.316 52.8912 340.07 53.38L336.45 59.38C335.86 60.52 336.29 62.05 337.08 62.38L341.92 65.21L341.76 65.45C341.532 65.9458 341.482 66.5051 341.619 67.0335C341.755 67.5618 342.07 68.0268 342.51 68.35L352.78 74.04V85.07C352.779 85.3488 352.833 85.625 352.939 85.8828C353.045 86.1406 353.201 86.3749 353.398 86.572C353.595 86.7691 353.829 86.9252 354.087 87.0313C354.345 87.1374 354.621 87.1913 354.9 87.19C355.198 87.1961 355.494 87.1356 355.765 87.0127C356.037 86.8899 356.278 86.7079 356.47 86.48C356.846 86.1066 357.058 85.5996 357.06 85.07V73.84L367.25 79.69C364.97 81.81 362.41 80.79 360.52 82.83C359.389 84.2323 358.62 85.8909 358.28 87.66ZM343.18 62.93L339.88 61.05L343.22 55.47H347.47L343.18 62.93ZM349.18 66.46L352 61.59L354.12 69.33L349.18 66.46Z" fill="black"/>
<path d="M356.54 53.81C358.8 53.81 360.13 51.88 360.13 49.45C360.119 48.4563 359.745 47.5009 359.078 46.7641C358.411 46.0272 357.498 45.5598 356.51 45.45C356.262 45.4041 356.012 45.3774 355.76 45.37C353.52 45.37 352.89 47.37 352.89 49.85C352.89 52.33 354.3 53.81 356.54 53.81Z" fill="black"/>
<path d="M346.4 71.4801L341.76 68.9301L342.35 72.1501C342.43 72.8601 342.86 74.2301 342.35 74.9401L336.29 83.6201C336.011 84.101 335.91 84.6643 336.003 85.2122C336.096 85.7602 336.378 86.2582 336.8 86.6201C337.98 87.5601 339.51 86.5401 339.8 86.0701L346.33 76.7301C346.752 75.7685 346.928 74.7166 346.84 73.6701C346.805 72.922 346.657 72.1835 346.4 71.4801Z" fill="black"/>
<path d="M395.06 86.47L357.57 21.77C356.901 20.6239 355.941 19.6751 354.787 19.02C353.634 18.3649 352.327 18.0268 351 18.04C349.67 18.035 348.362 18.3809 347.209 19.0428C346.055 19.7047 345.097 20.6592 344.43 21.81L306.91 86.47C306.309 87.6429 305.995 88.942 305.995 90.26C305.995 91.578 306.309 92.8771 306.91 94.05C307.595 95.1878 308.556 96.1338 309.705 96.7999C310.854 97.4661 312.152 97.8308 313.48 97.86H388.48C389.811 97.845 391.115 97.4863 392.266 96.8188C393.417 96.1512 394.376 95.1974 395.05 94.05C395.671 92.8837 395.997 91.5828 395.999 90.2612C396.001 88.9397 395.678 87.6379 395.06 86.47ZM315.61 89.18L351 28.01V28.09L386.36 89.18H315.61Z" fill="black"/>
</g>
<path d="M53.382 98.981C45.6067 98.981 38.9577 97.3823 33.435 94.185C27.9123 90.9877 23.6613 86.446 20.682 80.56C17.7753 74.6013 16.322 67.589 16.322 59.523C16.322 53.4917 17.1577 48.078 18.829 43.282C20.5003 38.4133 22.8983 34.2713 26.023 30.856C29.2203 27.368 33.108 24.7157 37.686 22.899C42.3367 21.0823 47.5687 20.174 53.382 20.174C57.6693 20.174 61.775 20.7553 65.699 21.918C69.6957 23.0807 73.1473 24.752 76.054 26.932C77.2893 27.7313 78.0887 28.7123 78.452 29.875C78.888 30.965 78.9607 32.0187 78.67 33.036C78.452 34.0533 77.9797 34.9253 77.253 35.652C76.5263 36.306 75.5817 36.6693 74.419 36.742C73.329 36.8147 72.13 36.415 70.822 35.543C68.424 33.7263 65.7717 32.382 62.865 31.51C59.9583 30.638 56.9063 30.202 53.709 30.202C48.1863 30.202 43.5357 31.3647 39.757 33.69C35.9783 35.9427 33.108 39.249 31.146 43.609C29.184 47.969 28.203 53.2737 28.203 59.523C28.203 65.7723 29.184 71.1133 31.146 75.546C33.108 79.906 35.9783 83.2487 39.757 85.574C43.5357 87.8267 48.1863 88.953 53.709 88.953C56.9063 88.953 59.9583 88.517 62.865 87.645C65.8443 86.7003 68.642 85.3197 71.258 83.503C72.566 82.7037 73.7287 82.3403 74.746 82.413C75.836 82.4857 76.7443 82.849 77.471 83.503C78.1977 84.157 78.67 84.9927 78.888 86.01C79.1787 86.9547 79.1423 87.972 78.779 89.062C78.4883 90.0793 77.798 90.9513 76.708 91.678C73.7287 94.076 70.2043 95.8927 66.135 97.128C62.0657 98.3633 57.8147 98.981 53.382 98.981ZM115.95 98.763C114.133 98.763 112.716 98.2543 111.699 97.237C110.754 96.2197 110.282 94.8027 110.282 92.986V30.638H87.1737C85.6477 30.638 84.4487 30.2383 83.5767 29.439C82.7047 28.567 82.2687 27.368 82.2687 25.842C82.2687 24.316 82.7047 23.1533 83.5767 22.354C84.4487 21.5547 85.6477 21.155 87.1737 21.155H144.617C146.215 21.155 147.451 21.5547 148.323 22.354C149.195 23.1533 149.631 24.316 149.631 25.842C149.631 27.368 149.195 28.567 148.323 29.439C147.451 30.2383 146.215 30.638 144.617 30.638H121.509V92.986C121.509 94.8027 121.036 96.2197 120.092 97.237C119.22 98.2543 117.839 98.763 115.95 98.763Z" fill="#FFC03B"/>
<path d="M212.524 98.981C209.181 98.981 205.911 98.7267 202.714 98.218C199.516 97.7093 196.501 96.9463 193.667 95.929C190.833 94.839 188.289 93.531 186.037 92.005C184.947 91.2057 184.184 90.2973 183.748 89.28C183.384 88.2627 183.275 87.2817 183.421 86.337C183.639 85.3197 184.075 84.4477 184.729 83.721C185.383 82.9943 186.182 82.5583 187.127 82.413C188.071 82.195 189.125 82.4857 190.288 83.285C193.558 85.3923 197.009 86.9547 200.643 87.972C204.276 88.9167 208.236 89.389 212.524 89.389C218.7 89.389 223.242 88.299 226.149 86.119C229.128 83.8663 230.618 80.9597 230.618 77.399C230.618 74.4923 229.564 72.2033 227.457 70.532C225.349 68.788 221.825 67.4073 216.884 66.39L205.221 63.992C198.317 62.5387 193.158 60.1407 189.743 56.798C186.4 53.4553 184.729 48.95 184.729 43.282C184.729 39.8667 185.419 36.742 186.8 33.908C188.253 31.074 190.251 28.6397 192.795 26.605C195.338 24.4977 198.39 22.899 201.951 21.809C205.511 20.719 209.399 20.174 213.614 20.174C218.119 20.174 222.334 20.7553 226.258 21.918C230.254 23.0807 233.815 24.861 236.94 27.259C237.884 27.913 238.502 28.7487 238.793 29.766C239.156 30.7107 239.229 31.6553 239.011 32.6C238.865 33.5447 238.466 34.344 237.812 34.998C237.158 35.652 236.322 36.0517 235.305 36.197C234.287 36.2697 233.161 35.9063 231.926 35.107C229.092 33.2177 226.185 31.8733 223.206 31.074C220.299 30.202 217.065 29.766 213.505 29.766C209.944 29.766 206.819 30.311 204.131 31.401C201.515 32.491 199.48 34.017 198.027 35.979C196.646 37.941 195.956 40.2663 195.956 42.955C195.956 46.007 196.937 48.4413 198.899 50.258C200.861 52.0747 204.131 53.4553 208.709 54.4L220.263 56.798C227.529 58.324 232.943 60.6857 236.504 63.883C240.064 67.0803 241.845 71.3313 241.845 76.636C241.845 80.0513 241.154 83.1397 239.774 85.901C238.393 88.5897 236.431 90.915 233.888 92.877C231.344 94.839 228.256 96.365 224.623 97.455C221.062 98.4723 217.029 98.981 212.524 98.981ZM277.534 98.763C275.717 98.763 274.3 98.2543 273.283 97.237C272.338 96.2197 271.866 94.8027 271.866 92.986V30.638H248.758C247.232 30.638 246.033 30.2383 245.161 29.439C244.289 28.567 243.853 27.368 243.853 25.842C243.853 24.316 244.289 23.1533 245.161 22.354C246.033 21.5547 247.232 21.155 248.758 21.155H306.201C307.799 21.155 309.035 21.5547 309.907 22.354C310.779 23.1533 311.215 24.316 311.215 25.842C311.215 27.368 310.779 28.567 309.907 29.439C309.035 30.2383 307.799 30.638 306.201 30.638H283.093V92.986C283.093 94.8027 282.62 96.2197 281.676 97.237C280.804 98.2543 279.423 98.763 277.534 98.763ZM440.417 98.981C432.642 98.981 425.993 97.3823 420.47 94.185C414.947 90.9877 410.696 86.446 407.717 80.56C404.81 74.6013 403.357 67.589 403.357 59.523C403.357 53.4917 404.193 48.078 405.864 43.282C407.535 38.4133 409.933 34.2713 413.058 30.856C416.255 27.368 420.143 24.7157 424.721 22.899C429.372 21.0823 434.604 20.174 440.417 20.174C444.704 20.174 448.81 20.7553 452.734 21.918C456.731 23.0807 460.182 24.752 463.089 26.932C464.324 27.7313 465.124 28.7123 465.487 29.875C465.923 30.965 465.996 32.0187 465.705 33.036C465.487 34.0533 465.015 34.9253 464.288 35.652C463.561 36.306 462.617 36.6693 461.454 36.742C460.364 36.8147 459.165 36.415 457.857 35.543C455.459 33.7263 452.807 32.382 449.9 31.51C446.993 30.638 443.941 30.202 440.744 30.202C435.221 30.202 430.571 31.3647 426.792 33.69C423.013 35.9427 420.143 39.249 418.181 43.609C416.219 47.969 415.238 53.2737 415.238 59.523C415.238 65.7723 416.219 71.1133 418.181 75.546C420.143 79.906 423.013 83.2487 426.792 85.574C430.571 87.8267 435.221 88.953 440.744 88.953C443.941 88.953 446.993 88.517 449.9 87.645C452.879 86.7003 455.677 85.3197 458.293 83.503C459.601 82.7037 460.764 82.3403 461.781 82.413C462.871 82.4857 463.779 82.849 464.506 83.503C465.233 84.157 465.705 84.9927 465.923 86.01C466.214 86.9547 466.177 87.972 465.814 89.062C465.523 90.0793 464.833 90.9513 463.743 91.678C460.764 94.076 457.239 95.8927 453.17 97.128C449.101 98.3633 444.85 98.981 440.417 98.981ZM485.301 98.763C483.485 98.763 482.068 98.2543 481.05 97.237C480.106 96.2197 479.633 94.8027 479.633 92.986V26.06C479.633 24.1707 480.106 22.7537 481.05 21.809C482.068 20.8643 483.485 20.392 485.301 20.392C487.118 20.392 488.499 20.8643 489.443 21.809C490.461 22.7537 490.969 24.1707 490.969 26.06V55.708H491.187L524.65 23.335C525.74 22.3177 526.758 21.591 527.702 21.155C528.72 20.6463 529.846 20.392 531.081 20.392C532.753 20.392 533.952 20.828 534.678 21.7C535.478 22.4993 535.805 23.4803 535.659 24.643C535.514 25.8057 534.896 26.932 533.806 28.022L499.035 61.158L499.253 55.599L535.441 90.479C536.749 91.7143 537.44 92.986 537.512 94.294C537.585 95.602 537.185 96.692 536.313 97.564C535.441 98.3633 534.206 98.763 532.607 98.763C531.154 98.763 529.991 98.4723 529.119 97.891C528.247 97.3097 527.23 96.474 526.067 95.384L491.187 62.139H490.969V92.986C490.969 94.8027 490.497 96.2197 489.552 97.237C488.608 98.2543 487.191 98.763 485.301 98.763Z" fill="black"/>
<mask id="path-7-outside-1_0_1" maskUnits="userSpaceOnUse" x="12" y="16" width="142" height="87" fill="black">
<rect fill="white" x="12" y="16" width="142" height="87"/>
<path d="M53.382 98.981C45.6067 98.981 38.9577 97.3823 33.435 94.185C27.9123 90.9877 23.6613 86.446 20.682 80.56C17.7753 74.6013 16.322 67.589 16.322 59.523C16.322 53.4917 17.1577 48.078 18.829 43.282C20.5003 38.4133 22.8983 34.2713 26.023 30.856C29.2203 27.368 33.108 24.7157 37.686 22.899C42.3367 21.0823 47.5687 20.174 53.382 20.174C57.6693 20.174 61.775 20.7553 65.699 21.918C69.6957 23.0807 73.1473 24.752 76.054 26.932C77.2893 27.7313 78.0887 28.7123 78.452 29.875C78.888 30.965 78.9607 32.0187 78.67 33.036C78.452 34.0533 77.9797 34.9253 77.253 35.652C76.5263 36.306 75.5817 36.6693 74.419 36.742C73.329 36.8147 72.13 36.415 70.822 35.543C68.424 33.7263 65.7717 32.382 62.865 31.51C59.9583 30.638 56.9063 30.202 53.709 30.202C48.1863 30.202 43.5357 31.3647 39.757 33.69C35.9783 35.9427 33.108 39.249 31.146 43.609C29.184 47.969 28.203 53.2737 28.203 59.523C28.203 65.7723 29.184 71.1133 31.146 75.546C33.108 79.906 35.9783 83.2487 39.757 85.574C43.5357 87.8267 48.1863 88.953 53.709 88.953C56.9063 88.953 59.9583 88.517 62.865 87.645C65.8443 86.7003 68.642 85.3197 71.258 83.503C72.566 82.7037 73.7287 82.3403 74.746 82.413C75.836 82.4857 76.7443 82.849 77.471 83.503C78.1977 84.157 78.67 84.9927 78.888 86.01C79.1787 86.9547 79.1423 87.972 78.779 89.062C78.4883 90.0793 77.798 90.9513 76.708 91.678C73.7287 94.076 70.2043 95.8927 66.135 97.128C62.0657 98.3633 57.8147 98.981 53.382 98.981ZM115.95 98.763C114.133 98.763 112.716 98.2543 111.699 97.237C110.754 96.2197 110.282 94.8027 110.282 92.986V30.638H87.1737C85.6477 30.638 84.4487 30.2383 83.5767 29.439C82.7047 28.567 82.2687 27.368 82.2687 25.842C82.2687 24.316 82.7047 23.1533 83.5767 22.354C84.4487 21.5547 85.6477 21.155 87.1737 21.155H144.617C146.215 21.155 147.451 21.5547 148.323 22.354C149.195 23.1533 149.631 24.316 149.631 25.842C149.631 27.368 149.195 28.567 148.323 29.439C147.451 30.2383 146.215 30.638 144.617 30.638H121.509V92.986C121.509 94.8027 121.036 96.2197 120.092 97.237C119.22 98.2543 117.839 98.763 115.95 98.763Z"/>
</mask>
<path d="M53.382 98.981C45.6067 98.981 38.9577 97.3823 33.435 94.185C27.9123 90.9877 23.6613 86.446 20.682 80.56C17.7753 74.6013 16.322 67.589 16.322 59.523C16.322 53.4917 17.1577 48.078 18.829 43.282C20.5003 38.4133 22.8983 34.2713 26.023 30.856C29.2203 27.368 33.108 24.7157 37.686 22.899C42.3367 21.0823 47.5687 20.174 53.382 20.174C57.6693 20.174 61.775 20.7553 65.699 21.918C69.6957 23.0807 73.1473 24.752 76.054 26.932C77.2893 27.7313 78.0887 28.7123 78.452 29.875C78.888 30.965 78.9607 32.0187 78.67 33.036C78.452 34.0533 77.9797 34.9253 77.253 35.652C76.5263 36.306 75.5817 36.6693 74.419 36.742C73.329 36.8147 72.13 36.415 70.822 35.543C68.424 33.7263 65.7717 32.382 62.865 31.51C59.9583 30.638 56.9063 30.202 53.709 30.202C48.1863 30.202 43.5357 31.3647 39.757 33.69C35.9783 35.9427 33.108 39.249 31.146 43.609C29.184 47.969 28.203 53.2737 28.203 59.523C28.203 65.7723 29.184 71.1133 31.146 75.546C33.108 79.906 35.9783 83.2487 39.757 85.574C43.5357 87.8267 48.1863 88.953 53.709 88.953C56.9063 88.953 59.9583 88.517 62.865 87.645C65.8443 86.7003 68.642 85.3197 71.258 83.503C72.566 82.7037 73.7287 82.3403 74.746 82.413C75.836 82.4857 76.7443 82.849 77.471 83.503C78.1977 84.157 78.67 84.9927 78.888 86.01C79.1787 86.9547 79.1423 87.972 78.779 89.062C78.4883 90.0793 77.798 90.9513 76.708 91.678C73.7287 94.076 70.2043 95.8927 66.135 97.128C62.0657 98.3633 57.8147 98.981 53.382 98.981ZM115.95 98.763C114.133 98.763 112.716 98.2543 111.699 97.237C110.754 96.2197 110.282 94.8027 110.282 92.986V30.638H87.1737C85.6477 30.638 84.4487 30.2383 83.5767 29.439C82.7047 28.567 82.2687 27.368 82.2687 25.842C82.2687 24.316 82.7047 23.1533 83.5767 22.354C84.4487 21.5547 85.6477 21.155 87.1737 21.155H144.617C146.215 21.155 147.451 21.5547 148.323 22.354C149.195 23.1533 149.631 24.316 149.631 25.842C149.631 27.368 149.195 28.567 148.323 29.439C147.451 30.2383 146.215 30.638 144.617 30.638H121.509V92.986C121.509 94.8027 121.036 96.2197 120.092 97.237C119.22 98.2543 117.839 98.763 115.95 98.763Z" fill="#FFC03B"/>
<path d="M33.435 94.185L31.4309 97.6467L31.4309 97.6467L33.435 94.185ZM20.682 80.56L17.0869 82.3137L17.0998 82.3402L17.1131 82.3665L20.682 80.56ZM18.829 43.282L22.6062 44.5983L22.6093 44.5895L22.6123 44.5807L18.829 43.282ZM26.023 30.856L23.0744 28.1531L23.0718 28.1559L26.023 30.856ZM37.686 22.899L36.2306 19.1732L36.2206 19.1771L36.2106 19.181L37.686 22.899ZM65.699 21.918L64.5626 25.7532L64.5722 25.756L64.5817 25.7588L65.699 21.918ZM76.054 26.932L73.654 30.132L73.7648 30.2151L73.881 30.2903L76.054 26.932ZM78.452 29.875L74.6341 31.0681L74.6804 31.2163L74.7381 31.3606L78.452 29.875ZM78.67 33.036L74.8239 31.9371L74.787 32.0664L74.7588 32.1979L78.67 33.036ZM77.253 35.652L79.9289 38.6252L80.0071 38.5548L80.0814 38.4804L77.253 35.652ZM74.419 36.742L74.1695 32.7498L74.1612 32.7503L74.1529 32.7509L74.419 36.742ZM70.822 35.543L68.4066 38.7314L68.5028 38.8043L68.6032 38.8712L70.822 35.543ZM62.865 31.51L61.7156 35.3413L61.7156 35.3413L62.865 31.51ZM39.757 33.69L41.8053 37.1258L41.8294 37.1114L41.8534 37.0966L39.757 33.69ZM31.146 43.609L27.4983 41.9675L27.4983 41.9675L31.146 43.609ZM31.146 75.546L27.4883 77.165L27.4933 77.1762L27.4983 77.1875L31.146 75.546ZM39.757 85.574L37.6606 88.9806L37.6846 88.9954L37.7087 89.0098L39.757 85.574ZM62.865 87.645L64.0144 91.4763L64.0443 91.4673L64.074 91.4579L62.865 87.645ZM71.258 83.503L69.1722 80.0899L69.0724 80.1508L68.9764 80.2175L71.258 83.503ZM74.746 82.413L74.461 86.4028L74.4705 86.4035L74.4799 86.4041L74.746 82.413ZM77.471 83.503L74.7951 86.4762L74.7951 86.4762L77.471 83.503ZM78.888 86.01L74.9768 86.8481L75.0134 87.0192L75.0649 87.1863L78.888 86.01ZM78.779 89.062L74.9843 87.7971L74.9568 87.8795L74.9329 87.9631L78.779 89.062ZM76.708 91.678L74.4892 88.3498L74.3398 88.4494L74.2 88.562L76.708 91.678ZM66.135 97.128L67.2969 100.956L67.2969 100.956L66.135 97.128ZM53.382 94.981C46.1573 94.981 40.2326 93.4985 35.4391 90.7233L31.4309 97.6467C37.6827 101.266 45.0561 102.981 53.382 102.981V94.981ZM35.4391 90.7233C30.611 87.9281 26.8926 83.9725 24.2509 78.7535L17.1131 82.3665C20.4301 88.9195 25.2137 94.0473 31.4309 97.6467L35.4391 90.7233ZM24.2771 78.8063C21.6883 73.4994 20.322 67.1108 20.322 59.523H12.322C12.322 68.0672 13.8623 75.7033 17.0869 82.3137L24.2771 78.8063ZM20.322 59.523C20.322 53.858 21.1071 48.9002 22.6062 44.5983L15.0518 41.9657C13.2083 47.2558 12.322 53.1254 12.322 59.523H20.322ZM22.6123 44.5807C24.1254 40.173 26.2596 36.5232 28.9742 33.556L23.0718 28.1559C19.537 32.0195 16.8753 36.6537 15.0457 41.9833L22.6123 44.5807ZM28.9716 33.5589C31.744 30.5345 35.1212 28.2202 39.1614 26.617L36.2106 19.181C31.0948 21.2111 26.6967 24.2015 23.0744 28.1531L28.9716 33.5589ZM39.1414 26.6248C43.2587 25.0165 47.9861 24.174 53.382 24.174V16.174C47.1513 16.174 41.4147 17.1481 36.2306 19.1732L39.1414 26.6248ZM53.382 24.174C57.303 24.174 61.0247 24.7049 64.5626 25.7532L66.8354 18.0828C62.5253 16.8057 58.0357 16.174 53.382 16.174V24.174ZM64.5817 25.7588C68.1822 26.8062 71.1846 28.2799 73.654 30.132L78.454 23.732C75.1101 21.224 71.2091 19.3551 66.8163 18.0772L64.5817 25.7588ZM73.881 30.2903C74.5016 30.6918 74.6042 30.9725 74.6341 31.0681L82.2699 28.6819C81.5731 26.4521 80.0771 24.7708 78.227 23.5737L73.881 30.2903ZM74.7381 31.3606C74.883 31.7228 74.8443 31.8658 74.8239 31.9371L82.5161 34.1349C83.0771 32.1715 82.893 30.2072 82.1659 28.3894L74.7381 31.3606ZM74.7588 32.1979C74.7002 32.4712 74.5989 32.6493 74.4246 32.8236L80.0814 38.4804C81.3605 37.2014 82.2038 35.6354 82.5812 33.8741L74.7588 32.1979ZM74.5771 32.6788C74.59 32.6672 74.596 32.6692 74.5636 32.6816C74.5236 32.697 74.4046 32.7351 74.1695 32.7498L74.6685 40.7342C76.5527 40.6164 78.4093 39.9928 79.9289 38.6252L74.5771 32.6788ZM74.1529 32.7509C74.2536 32.7441 73.9276 32.806 73.0408 32.2148L68.6032 38.8712C70.3324 40.024 72.4044 40.8852 74.6851 40.7331L74.1529 32.7509ZM73.2374 32.3546C70.4558 30.2473 67.374 28.6866 64.0144 27.6787L61.7156 35.3413C64.1694 36.0774 66.3922 37.2054 68.4066 38.7314L73.2374 32.3546ZM64.0144 27.6787C60.7153 26.689 57.2747 26.202 53.709 26.202V34.202C56.538 34.202 59.2013 34.587 61.7156 35.3413L64.0144 27.6787ZM53.709 26.202C47.6264 26.202 42.2074 27.4854 37.6606 30.2834L41.8534 37.0966C44.864 35.244 48.7463 34.202 53.709 34.202V26.202ZM37.7087 30.2542C33.164 32.9636 29.7662 36.9278 27.4983 41.9675L34.7937 45.2505C36.4498 41.5702 38.7927 38.9217 41.8053 37.1258L37.7087 30.2542ZM27.4983 41.9675C25.2444 46.9762 24.203 52.8739 24.203 59.523H32.203C32.203 53.6734 33.1236 48.9618 34.7937 45.2505L27.4983 41.9675ZM24.203 59.523C24.203 66.1752 25.2454 72.0977 27.4883 77.165L34.8037 73.927C33.1226 70.1289 32.203 65.3694 32.203 59.523H24.203ZM27.4983 77.1875C29.7622 82.2184 33.1463 86.2026 37.6606 88.9806L41.8534 82.1674C38.8104 80.2948 36.4538 77.5936 34.7937 73.9045L27.4983 77.1875ZM37.7087 89.0098C42.2466 91.715 47.6474 92.953 53.709 92.953V84.953C48.7252 84.953 44.8248 83.9383 41.8053 82.1382L37.7087 89.0098ZM53.709 92.953C57.2747 92.953 60.7153 92.466 64.0144 91.4763L61.7156 83.8137C59.2013 84.568 56.538 84.953 53.709 84.953V92.953ZM64.074 91.4579C67.4425 90.3898 70.6008 88.8293 73.5396 86.7885L68.9764 80.2175C66.6832 81.81 64.2461 83.0108 61.656 83.8321L64.074 91.4579ZM73.3438 86.9161C73.7864 86.6456 74.1041 86.5114 74.3041 86.4489C74.4985 86.3882 74.5382 86.4083 74.461 86.4028L75.031 78.4232C72.8599 78.2681 70.8534 79.0624 69.1722 80.0899L73.3438 86.9161ZM74.4799 86.4041C74.6547 86.4158 74.737 86.445 74.7592 86.4539C74.7764 86.4608 74.7821 86.4645 74.7951 86.4762L80.1469 80.5298C78.6755 79.2056 76.8857 78.5468 75.0121 78.4219L74.4799 86.4041ZM74.7951 86.4762C74.854 86.5292 74.9233 86.5987 74.9768 86.8481L82.7992 85.1719C82.4167 83.3866 81.5413 81.7848 80.1469 80.5298L74.7951 86.4762ZM75.0649 87.1863C75.0722 87.2102 75.1282 87.3653 74.9843 87.7971L82.5737 90.3269C83.1565 88.5787 83.2851 86.6992 82.7111 84.8337L75.0649 87.1863ZM74.9329 87.9631C74.9387 87.9429 74.9442 87.9493 74.9071 87.9962C74.863 88.0518 74.7464 88.1784 74.4892 88.3498L78.9268 95.0062C80.612 93.8828 82.0159 92.293 82.6251 90.1609L74.9329 87.9631ZM74.2 88.562C71.662 90.6047 68.6071 92.1973 64.9731 93.3005L67.2969 100.956C71.8015 99.5881 75.7954 97.5473 79.216 94.794L74.2 88.562ZM64.9731 93.3005C61.2962 94.4167 57.4377 94.981 53.382 94.981V102.981C58.1916 102.981 62.8352 102.31 67.2969 100.956L64.9731 93.3005ZM111.699 97.237L108.768 99.9588L108.818 100.013L108.87 100.065L111.699 97.237ZM110.282 30.638H114.282V26.638H110.282V30.638ZM83.5767 29.439L80.7483 32.2674L80.8097 32.3289L80.8738 32.3876L83.5767 29.439ZM83.5767 22.354L86.2796 25.3026L86.2796 25.3026L83.5767 22.354ZM148.323 22.354L145.62 25.3026L145.62 25.3026L148.323 22.354ZM148.323 29.439L151.026 32.3876L151.09 32.3289L151.151 32.2674L148.323 29.439ZM121.509 30.638V26.638H117.509V30.638H121.509ZM120.092 97.237L117.161 94.5152L117.106 94.5735L117.055 94.6338L120.092 97.237ZM115.95 94.763C114.901 94.763 114.61 94.4911 114.527 94.4086L108.87 100.065C110.822 102.018 113.366 102.763 115.95 102.763V94.763ZM114.63 94.5152C114.563 94.4431 114.282 94.1134 114.282 92.986H106.282C106.282 95.4919 106.945 97.9962 108.768 99.9588L114.63 94.5152ZM114.282 92.986V30.638H106.282V92.986H114.282ZM110.282 26.638H87.1737V34.638H110.282V26.638ZM87.1737 26.638C86.7544 26.638 86.512 26.5826 86.3949 26.5435C86.3378 26.5245 86.3078 26.5086 86.2962 26.5019C86.2852 26.4955 86.2815 26.4921 86.2796 26.4904L80.8738 32.3876C82.678 34.0414 84.9463 34.638 87.1737 34.638V26.638ZM86.4051 26.6106C86.3969 26.6023 86.3802 26.5885 86.3549 26.5188C86.324 26.4339 86.2687 26.2278 86.2687 25.842H78.2687C78.2687 28.1619 78.9564 30.4755 80.7483 32.2674L86.4051 26.6106ZM86.2687 25.842C86.2687 25.4525 86.3251 25.2726 86.341 25.23C86.3483 25.2106 86.3476 25.2179 86.3327 25.2404C86.3172 25.2636 86.2978 25.2859 86.2796 25.3026L80.8738 19.4054C78.9515 21.1675 78.2687 23.5394 78.2687 25.842H86.2687ZM86.2796 25.3026C86.2815 25.3009 86.2852 25.2975 86.2962 25.2911C86.3078 25.2844 86.3378 25.2685 86.3949 25.2495C86.512 25.2104 86.7544 25.155 87.1737 25.155V17.155C84.9463 17.155 82.6779 17.7516 80.8738 19.4054L86.2796 25.3026ZM87.1737 25.155H144.617V17.155H87.1737V25.155ZM144.617 25.155C145.091 25.155 145.371 25.2151 145.511 25.2605C145.636 25.301 145.647 25.3275 145.62 25.3026L151.026 19.4054C149.189 17.7221 146.859 17.155 144.617 17.155V25.155ZM145.62 25.3026C145.602 25.2859 145.582 25.2636 145.567 25.2404C145.552 25.2179 145.551 25.2106 145.558 25.23C145.574 25.2726 145.631 25.4525 145.631 25.842H153.631C153.631 23.5394 152.948 21.1675 151.026 19.4054L145.62 25.3026ZM145.631 25.842C145.631 26.2278 145.575 26.4339 145.545 26.5188C145.519 26.5885 145.503 26.6023 145.494 26.6106L151.151 32.2674C152.943 30.4755 153.631 28.1619 153.631 25.842H145.631ZM145.62 26.4904C145.647 26.4655 145.636 26.492 145.511 26.5325C145.371 26.5779 145.091 26.638 144.617 26.638V34.638C146.859 34.638 149.189 34.0709 151.026 32.3876L145.62 26.4904ZM144.617 26.638H121.509V34.638H144.617V26.638ZM117.509 30.638V92.986H125.509V30.638H117.509ZM117.509 92.986C117.509 94.1134 117.227 94.4431 117.161 94.5152L123.023 99.9588C124.845 97.9962 125.509 95.4919 125.509 92.986H117.509ZM117.055 94.6338C117.106 94.5745 117.134 94.586 117.019 94.6281C116.878 94.6804 116.55 94.763 115.95 94.763V102.763C118.51 102.763 121.224 102.062 123.129 99.8402L117.055 94.6338Z" fill="black" mask="url(#path-7-outside-1_0_1)"/>
<defs>
<clipPath id="clip0_0_1">
<rect width="90" height="79.86" fill="white" transform="translate(306 18)"/>
</clipPath>
</defs>
</svg>
